# xmcd
#
# Track frame offsets:
#	150
#	20231
#	38804
#	61157
#	79795
#	102064
#	119039
#	138336
#	157501
#	174009
#	189230
#	202030
#	222562
#	244206
#	258864
#	277528
#	296688
#	314746
#
# Disc length: 4373 seconds
#
# Revision: 0
# Processed by: cddbd v1.5.2PL0 Copyright (c) Steve Scherf et al.
# Submitted via: audiograbber 1.83.01
#
DISCID=fb111312
DTITLE=Blue Rose - Blue Rose Nuggets 49
DYEAR=2008
DGENRE=Country Rock
TTITLE0=Jason Isbell and 400 Unit - Go It Alone
TTITLE1=David Lowery - Baby, All Those Girls Meant Nothing To Me
TTITLE2=The Statesboro Revue - Shine On
TTITLE3=Ben Arnold - Slow Learner
TTITLE4=Buddy Miller´s Majestic Silver Strings - No Good Lover
TTITLE5=The Baseball Projekt - Chin Music
TTITLE6=Baskery - Shame On
TTITLE7=Todd Thibaud - Finding Out
TTITLE8=Paul Thorn - Tequila Is Good For The Heart
TTITLE9=The Silos - Getting Trashed
TTITLE10=Owen Temple - One Day Closer To Rain
TTITLE11=Markus Rill - Your Own Private Rainbow
TTITLE12=Greg Trooper - They Call Me Hank
TTITLE13=Cindy Bullens - Misty Hills Of Tennessee
TTITLE14=The Band Of Heathens - Gravity
TTITLE15=Steve Earle - The Gulf Of Mexico
TTITLE16=Ad Vanderveen - Days Of The Greats
TTITLE17=Leroy Stagger and The Wildflowers - Everything Is Real
EXTD=
EXTT0=
EXTT1=
EXTT2=
EXTT3=
EXTT4=
EXTT5=
EXTT6=
EXTT7=
EXTT8=
EXTT9=
EXTT10=
EXTT11=
EXTT12=
EXTT13=
EXTT14=
EXTT15=
EXTT16=
EXTT17=
PLAYORDER=
